M48
;DRILL file {KiCad 4.0.7} date 01/02/18 09:07:15
;FORMAT={-:-/ absolute / inch / decimal}
FMAT,2
INCH,TZ
T1C0.016
T2C0.031
T3C0.039
%
G90
G05
M72
T1
X4.1575Y-5.1969
X4.3937Y-5.2205
X4.4331Y-5.1732
X4.6693Y-5.2047
X4.7953Y-5.1654
X4.7953Y-5.252
X4.874Y-5.4961
X4.9134Y-5.4409
T2
X3.937Y-3.937
X3.937Y-4.0157
X3.937Y-4.0945
X3.937Y-4.1732
X3.937Y-4.252
X3.937Y-4.3307
X3.937Y-4.4094
X3.937Y-4.4882
X3.937Y-4.5669
X3.937Y-4.6457
X4.0846Y-5.0921
X4.1634Y-5.0921
X4.2421Y-5.0921
X4.3209Y-5.0921
X4.3996Y-5.0921
X4.4783Y-5.0921
X4.5571Y-5.0921
X4.6358Y-5.0921
X4.8031Y-3.937
X4.8031Y-4.0157
X4.8031Y-4.0945
X4.8031Y-4.1732
X4.8031Y-4.252
X4.8031Y-4.3307
X4.8031Y-4.4094
X4.8031Y-4.4882
X4.8031Y-4.5669
X4.8031Y-4.6457
T3
X4.1102Y-5.311
X4.2102Y-5.311
X4.2323Y-5.5906
X4.3102Y-5.311
X4.3307Y-5.5906
X4.4094Y-5.5906
X4.4102Y-5.311
X4.5079Y-5.5906
X4.5102Y-5.311
X4.6102Y-5.311
T3
X4.1398Y-5.6437G85X4.1398Y-5.7028
G05
X4.6004Y-5.6437G85X4.6004Y-5.7028
G05
T0
M30
