G04 #@! TF.FileFunction,Legend,Top*
%FSLAX46Y46*%
G04 Gerber Fmt 4.6, Leading zero omitted, Abs format (unit mm)*
G04 Created by KiCad (PCBNEW 4.0.7) date 01/02/18 09:07:11*
%MOMM*%
%LPD*%
G01*
G04 APERTURE LIST*
%ADD10C,0.100000*%
%ADD11C,0.300000*%
%ADD12C,0.200000*%
%ADD13C,0.150000*%
%ADD14C,0.120000*%
%ADD15C,0.350000*%
G04 APERTURE END LIST*
D10*
X108690477Y-112652381D02*
X108357143Y-112176190D01*
X108119048Y-112652381D02*
X108119048Y-111652381D01*
X108500001Y-111652381D01*
X108595239Y-111700000D01*
X108642858Y-111747619D01*
X108690477Y-111842857D01*
X108690477Y-111985714D01*
X108642858Y-112080952D01*
X108595239Y-112128571D01*
X108500001Y-112176190D01*
X108119048Y-112176190D01*
X109500001Y-112604762D02*
X109404763Y-112652381D01*
X109214286Y-112652381D01*
X109119048Y-112604762D01*
X109071429Y-112509524D01*
X109071429Y-112128571D01*
X109119048Y-112033333D01*
X109214286Y-111985714D01*
X109404763Y-111985714D01*
X109500001Y-112033333D01*
X109547620Y-112128571D01*
X109547620Y-112223810D01*
X109071429Y-112319048D01*
X109880953Y-111985714D02*
X110119048Y-112652381D01*
X110357144Y-111985714D01*
X110738096Y-112557143D02*
X110785715Y-112604762D01*
X110738096Y-112652381D01*
X110690477Y-112604762D01*
X110738096Y-112557143D01*
X110738096Y-112652381D01*
X112500001Y-112652381D02*
X111928572Y-112652381D01*
X112214286Y-112652381D02*
X112214286Y-111652381D01*
X112119048Y-111795238D01*
X112023810Y-111890476D01*
X111928572Y-111938095D01*
X112928572Y-112557143D02*
X112976191Y-112604762D01*
X112928572Y-112652381D01*
X112880953Y-112604762D01*
X112928572Y-112557143D01*
X112928572Y-112652381D01*
X113595238Y-111652381D02*
X113690477Y-111652381D01*
X113785715Y-111700000D01*
X113833334Y-111747619D01*
X113880953Y-111842857D01*
X113928572Y-112033333D01*
X113928572Y-112271429D01*
X113880953Y-112461905D01*
X113833334Y-112557143D01*
X113785715Y-112604762D01*
X113690477Y-112652381D01*
X113595238Y-112652381D01*
X113500000Y-112604762D01*
X113452381Y-112557143D01*
X113404762Y-112461905D01*
X113357143Y-112271429D01*
X113357143Y-112033333D01*
X113404762Y-111842857D01*
X113452381Y-111747619D01*
X113500000Y-111700000D01*
X113595238Y-111652381D01*
X103166666Y-114157143D02*
X103119047Y-114204762D01*
X102976190Y-114252381D01*
X102880952Y-114252381D01*
X102738094Y-114204762D01*
X102642856Y-114109524D01*
X102595237Y-114014286D01*
X102547618Y-113823810D01*
X102547618Y-113680952D01*
X102595237Y-113490476D01*
X102642856Y-113395238D01*
X102738094Y-113300000D01*
X102880952Y-113252381D01*
X102976190Y-113252381D01*
X103119047Y-113300000D01*
X103166666Y-113347619D01*
X103595237Y-114252381D02*
X103595237Y-113252381D01*
X104023809Y-114252381D02*
X104023809Y-113728571D01*
X103976190Y-113633333D01*
X103880952Y-113585714D01*
X103738094Y-113585714D01*
X103642856Y-113633333D01*
X103595237Y-113680952D01*
X104499999Y-114252381D02*
X104499999Y-113585714D01*
X104499999Y-113776190D02*
X104547618Y-113680952D01*
X104595237Y-113633333D01*
X104690475Y-113585714D01*
X104785714Y-113585714D01*
X105119047Y-114252381D02*
X105119047Y-113585714D01*
X105119047Y-113252381D02*
X105071428Y-113300000D01*
X105119047Y-113347619D01*
X105166666Y-113300000D01*
X105119047Y-113252381D01*
X105119047Y-113347619D01*
X105547618Y-114204762D02*
X105642856Y-114252381D01*
X105833332Y-114252381D01*
X105928571Y-114204762D01*
X105976190Y-114109524D01*
X105976190Y-114061905D01*
X105928571Y-113966667D01*
X105833332Y-113919048D01*
X105690475Y-113919048D01*
X105595237Y-113871429D01*
X105547618Y-113776190D01*
X105547618Y-113728571D01*
X105595237Y-113633333D01*
X105690475Y-113585714D01*
X105833332Y-113585714D01*
X105928571Y-113633333D01*
X107166666Y-114252381D02*
X107166666Y-113252381D01*
X107500000Y-113966667D01*
X107833333Y-113252381D01*
X107833333Y-114252381D01*
X108738095Y-114252381D02*
X108738095Y-113728571D01*
X108690476Y-113633333D01*
X108595238Y-113585714D01*
X108404761Y-113585714D01*
X108309523Y-113633333D01*
X108738095Y-114204762D02*
X108642857Y-114252381D01*
X108404761Y-114252381D01*
X108309523Y-114204762D01*
X108261904Y-114109524D01*
X108261904Y-114014286D01*
X108309523Y-113919048D01*
X108404761Y-113871429D01*
X108642857Y-113871429D01*
X108738095Y-113823810D01*
X109071428Y-113585714D02*
X109452380Y-113585714D01*
X109214285Y-113252381D02*
X109214285Y-114109524D01*
X109261904Y-114204762D01*
X109357142Y-114252381D01*
X109452380Y-114252381D01*
X109642857Y-113585714D02*
X110023809Y-113585714D01*
X109785714Y-113252381D02*
X109785714Y-114109524D01*
X109833333Y-114204762D01*
X109928571Y-114252381D01*
X110023809Y-114252381D01*
X110357143Y-114252381D02*
X110357143Y-113252381D01*
X110785715Y-114252381D02*
X110785715Y-113728571D01*
X110738096Y-113633333D01*
X110642858Y-113585714D01*
X110500000Y-113585714D01*
X110404762Y-113633333D01*
X110357143Y-113680952D01*
X111642858Y-114204762D02*
X111547620Y-114252381D01*
X111357143Y-114252381D01*
X111261905Y-114204762D01*
X111214286Y-114109524D01*
X111214286Y-113728571D01*
X111261905Y-113633333D01*
X111357143Y-113585714D01*
X111547620Y-113585714D01*
X111642858Y-113633333D01*
X111690477Y-113728571D01*
X111690477Y-113823810D01*
X111214286Y-113919048D01*
X112023810Y-113585714D02*
X112214286Y-114252381D01*
X112404763Y-113776190D01*
X112595239Y-114252381D01*
X112785715Y-113585714D01*
X113119048Y-114204762D02*
X113214286Y-114252381D01*
X113404762Y-114252381D01*
X113500001Y-114204762D01*
X113547620Y-114109524D01*
X113547620Y-114061905D01*
X113500001Y-113966667D01*
X113404762Y-113919048D01*
X113261905Y-113919048D01*
X113166667Y-113871429D01*
X113119048Y-113776190D01*
X113119048Y-113728571D01*
X113166667Y-113633333D01*
X113261905Y-113585714D01*
X113404762Y-113585714D01*
X113500001Y-113633333D01*
X115023811Y-114633333D02*
X114976191Y-114585714D01*
X114880953Y-114442857D01*
X114833334Y-114347619D01*
X114785715Y-114204762D01*
X114738096Y-113966667D01*
X114738096Y-113776190D01*
X114785715Y-113538095D01*
X114833334Y-113395238D01*
X114880953Y-113300000D01*
X114976191Y-113157143D01*
X115023811Y-113109524D01*
X115357144Y-113347619D02*
X115404763Y-113300000D01*
X115500001Y-113252381D01*
X115738097Y-113252381D01*
X115833335Y-113300000D01*
X115880954Y-113347619D01*
X115928573Y-113442857D01*
X115928573Y-113538095D01*
X115880954Y-113680952D01*
X115309525Y-114252381D01*
X115928573Y-114252381D01*
X116547620Y-113252381D02*
X116642859Y-113252381D01*
X116738097Y-113300000D01*
X116785716Y-113347619D01*
X116833335Y-113442857D01*
X116880954Y-113633333D01*
X116880954Y-113871429D01*
X116833335Y-114061905D01*
X116785716Y-114157143D01*
X116738097Y-114204762D01*
X116642859Y-114252381D01*
X116547620Y-114252381D01*
X116452382Y-114204762D01*
X116404763Y-114157143D01*
X116357144Y-114061905D01*
X116309525Y-113871429D01*
X116309525Y-113633333D01*
X116357144Y-113442857D01*
X116404763Y-113347619D01*
X116452382Y-113300000D01*
X116547620Y-113252381D01*
X117833335Y-114252381D02*
X117261906Y-114252381D01*
X117547620Y-114252381D02*
X117547620Y-113252381D01*
X117452382Y-113395238D01*
X117357144Y-113490476D01*
X117261906Y-113538095D01*
X118166668Y-113252381D02*
X118833335Y-113252381D01*
X118404763Y-114252381D01*
X119119049Y-114633333D02*
X119166668Y-114585714D01*
X119261906Y-114442857D01*
X119309525Y-114347619D01*
X119357144Y-114204762D01*
X119404763Y-113966667D01*
X119404763Y-113776190D01*
X119357144Y-113538095D01*
X119309525Y-113395238D01*
X119261906Y-113300000D01*
X119166668Y-113157143D01*
X119119049Y-113109524D01*
D11*
X104571429Y-103678571D02*
X104571429Y-102678571D01*
X104571429Y-102821429D02*
X104642857Y-102750000D01*
X104785715Y-102678571D01*
X105000000Y-102678571D01*
X105142857Y-102750000D01*
X105214286Y-102892857D01*
X105214286Y-103678571D01*
X105214286Y-102892857D02*
X105285715Y-102750000D01*
X105428572Y-102678571D01*
X105642857Y-102678571D01*
X105785715Y-102750000D01*
X105857143Y-102892857D01*
X105857143Y-103678571D01*
X106571429Y-103678571D02*
X106571429Y-102178571D01*
X106928572Y-102178571D01*
X107142857Y-102250000D01*
X107285715Y-102392857D01*
X107357143Y-102535714D01*
X107428572Y-102821429D01*
X107428572Y-103035714D01*
X107357143Y-103321429D01*
X107285715Y-103464286D01*
X107142857Y-103607143D01*
X106928572Y-103678571D01*
X106571429Y-103678571D01*
X108285715Y-103678571D02*
X108142857Y-103607143D01*
X108071429Y-103535714D01*
X108000000Y-103392857D01*
X108000000Y-102964286D01*
X108071429Y-102821429D01*
X108142857Y-102750000D01*
X108285715Y-102678571D01*
X108500000Y-102678571D01*
X108642857Y-102750000D01*
X108714286Y-102821429D01*
X108785715Y-102964286D01*
X108785715Y-103392857D01*
X108714286Y-103535714D01*
X108642857Y-103607143D01*
X108500000Y-103678571D01*
X108285715Y-103678571D01*
X109214286Y-102678571D02*
X109785715Y-102678571D01*
X109428572Y-102178571D02*
X109428572Y-103464286D01*
X109500000Y-103607143D01*
X109642858Y-103678571D01*
X109785715Y-103678571D01*
X111928572Y-102892857D02*
X112142858Y-102964286D01*
X112214286Y-103035714D01*
X112285715Y-103178571D01*
X112285715Y-103392857D01*
X112214286Y-103535714D01*
X112142858Y-103607143D01*
X112000000Y-103678571D01*
X111428572Y-103678571D01*
X111428572Y-102178571D01*
X111928572Y-102178571D01*
X112071429Y-102250000D01*
X112142858Y-102321429D01*
X112214286Y-102464286D01*
X112214286Y-102607143D01*
X112142858Y-102750000D01*
X112071429Y-102821429D01*
X111928572Y-102892857D01*
X111428572Y-102892857D01*
X113571429Y-102678571D02*
X113571429Y-103678571D01*
X112928572Y-102678571D02*
X112928572Y-103464286D01*
X113000000Y-103607143D01*
X113142858Y-103678571D01*
X113357143Y-103678571D01*
X113500000Y-103607143D01*
X113571429Y-103535714D01*
X114928572Y-103678571D02*
X114928572Y-102178571D01*
X114928572Y-103607143D02*
X114785715Y-103678571D01*
X114500001Y-103678571D01*
X114357143Y-103607143D01*
X114285715Y-103535714D01*
X114214286Y-103392857D01*
X114214286Y-102964286D01*
X114285715Y-102821429D01*
X114357143Y-102750000D01*
X114500001Y-102678571D01*
X114785715Y-102678571D01*
X114928572Y-102750000D01*
X116285715Y-103678571D02*
X116285715Y-102178571D01*
X116285715Y-103607143D02*
X116142858Y-103678571D01*
X115857144Y-103678571D01*
X115714286Y-103607143D01*
X115642858Y-103535714D01*
X115571429Y-103392857D01*
X115571429Y-102964286D01*
X115642858Y-102821429D01*
X115714286Y-102750000D01*
X115857144Y-102678571D01*
X116142858Y-102678571D01*
X116285715Y-102750000D01*
X116857144Y-102678571D02*
X117214287Y-103678571D01*
X117571429Y-102678571D02*
X117214287Y-103678571D01*
X117071429Y-104035714D01*
X117000001Y-104107143D01*
X116857144Y-104178571D01*
D12*
X95547619Y-125761905D02*
X96023810Y-125428571D01*
X95547619Y-125190476D02*
X96547619Y-125190476D01*
X96547619Y-125571429D01*
X96500000Y-125666667D01*
X96452381Y-125714286D01*
X96357143Y-125761905D01*
X96214286Y-125761905D01*
X96119048Y-125714286D01*
X96071429Y-125666667D01*
X96023810Y-125571429D01*
X96023810Y-125190476D01*
X95595238Y-126571429D02*
X95547619Y-126476191D01*
X95547619Y-126285714D01*
X95595238Y-126190476D01*
X95690476Y-126142857D01*
X96071429Y-126142857D01*
X96166667Y-126190476D01*
X96214286Y-126285714D01*
X96214286Y-126476191D01*
X96166667Y-126571429D01*
X96071429Y-126619048D01*
X95976190Y-126619048D01*
X95880952Y-126142857D01*
X95595238Y-127000000D02*
X95547619Y-127095238D01*
X95547619Y-127285714D01*
X95595238Y-127380953D01*
X95690476Y-127428572D01*
X95738095Y-127428572D01*
X95833333Y-127380953D01*
X95880952Y-127285714D01*
X95880952Y-127142857D01*
X95928571Y-127047619D01*
X96023810Y-127000000D01*
X96071429Y-127000000D01*
X96166667Y-127047619D01*
X96214286Y-127142857D01*
X96214286Y-127285714D01*
X96166667Y-127380953D01*
X95595238Y-128238096D02*
X95547619Y-128142858D01*
X95547619Y-127952381D01*
X95595238Y-127857143D01*
X95690476Y-127809524D01*
X96071429Y-127809524D01*
X96166667Y-127857143D01*
X96214286Y-127952381D01*
X96214286Y-128142858D01*
X96166667Y-128238096D01*
X96071429Y-128285715D01*
X95976190Y-128285715D01*
X95880952Y-127809524D01*
X96214286Y-128571429D02*
X96214286Y-128952381D01*
X96547619Y-128714286D02*
X95690476Y-128714286D01*
X95595238Y-128761905D01*
X95547619Y-128857143D01*
X95547619Y-128952381D01*
X95547619Y-112690476D02*
X96547619Y-112690476D01*
X96547619Y-113071429D01*
X96500000Y-113166667D01*
X96452381Y-113214286D01*
X96357143Y-113261905D01*
X96214286Y-113261905D01*
X96119048Y-113214286D01*
X96071429Y-113166667D01*
X96023810Y-113071429D01*
X96023810Y-112690476D01*
X96547619Y-113880952D02*
X96547619Y-114071429D01*
X96500000Y-114166667D01*
X96404762Y-114261905D01*
X96214286Y-114309524D01*
X95880952Y-114309524D01*
X95690476Y-114261905D01*
X95595238Y-114166667D01*
X95547619Y-114071429D01*
X95547619Y-113880952D01*
X95595238Y-113785714D01*
X95690476Y-113690476D01*
X95880952Y-113642857D01*
X96214286Y-113642857D01*
X96404762Y-113690476D01*
X96500000Y-113785714D01*
X96547619Y-113880952D01*
X96547619Y-114642857D02*
X95547619Y-114880952D01*
X96261905Y-115071429D01*
X95547619Y-115261905D01*
X96547619Y-115500000D01*
X96071429Y-115880952D02*
X96071429Y-116214286D01*
X95547619Y-116357143D02*
X95547619Y-115880952D01*
X96547619Y-115880952D01*
X96547619Y-116357143D01*
X95547619Y-117357143D02*
X96023810Y-117023809D01*
X95547619Y-116785714D02*
X96547619Y-116785714D01*
X96547619Y-117166667D01*
X96500000Y-117261905D01*
X96452381Y-117309524D01*
X96357143Y-117357143D01*
X96214286Y-117357143D01*
X96119048Y-117309524D01*
X96071429Y-117261905D01*
X96023810Y-117166667D01*
X96023810Y-116785714D01*
X119350000Y-136900000D02*
X119100000Y-137150000D01*
X119350000Y-134950000D02*
X119350000Y-136900000D01*
D13*
X103721000Y-107171000D02*
X103721000Y-107029000D01*
X103721000Y-107029000D02*
X103721000Y-107171000D01*
X102779000Y-107171000D02*
X102779000Y-107029000D01*
X102779000Y-107029000D02*
X102779000Y-107171000D01*
X105946000Y-108871000D02*
X105946000Y-108729000D01*
X105946000Y-108729000D02*
X105946000Y-108871000D01*
X105454000Y-108871000D02*
X105454000Y-108729000D01*
X105454000Y-108729000D02*
X105454000Y-108871000D01*
X106821000Y-119154000D02*
X106679000Y-119154000D01*
X106679000Y-119154000D02*
X106821000Y-119154000D01*
X106821000Y-119646000D02*
X106679000Y-119646000D01*
X106679000Y-119646000D02*
X106821000Y-119646000D01*
X110929000Y-119871000D02*
X111071000Y-119871000D01*
X111071000Y-119871000D02*
X110929000Y-119871000D01*
X110929000Y-118929000D02*
X111071000Y-118929000D01*
X111071000Y-118929000D02*
X110929000Y-118929000D01*
X110171000Y-125929000D02*
X110029000Y-125929000D01*
X110029000Y-125929000D02*
X110171000Y-125929000D01*
X110171000Y-126871000D02*
X110029000Y-126871000D01*
X110029000Y-126871000D02*
X110171000Y-126871000D01*
X95750000Y-120250000D02*
X95750000Y-119750000D01*
X96250000Y-119750000D02*
X96250000Y-120250000D01*
X96500000Y-118250000D02*
X95500000Y-118250000D01*
X120016000Y-144351000D02*
X120016000Y-144209000D01*
X120016000Y-144209000D02*
X120016000Y-144351000D01*
X119524000Y-144351000D02*
X119524000Y-144209000D01*
X119524000Y-144209000D02*
X119524000Y-144351000D01*
X121304000Y-144229000D02*
X121304000Y-144371000D01*
X121304000Y-144371000D02*
X121304000Y-144229000D01*
X121796000Y-144229000D02*
X121796000Y-144371000D01*
X121796000Y-144371000D02*
X121796000Y-144229000D01*
X117521000Y-139754000D02*
X117379000Y-139754000D01*
X117379000Y-139754000D02*
X117521000Y-139754000D01*
X117521000Y-140246000D02*
X117379000Y-140246000D01*
X117379000Y-140246000D02*
X117521000Y-140246000D01*
X117379000Y-137946000D02*
X117521000Y-137946000D01*
X117521000Y-137946000D02*
X117379000Y-137946000D01*
X117379000Y-137454000D02*
X117521000Y-137454000D01*
X117521000Y-137454000D02*
X117379000Y-137454000D01*
D14*
X123060000Y-117000000D02*
X123060000Y-98940000D01*
X123060000Y-98940000D02*
X120940000Y-98940000D01*
X120940000Y-98940000D02*
X120940000Y-117000000D01*
X120940000Y-117000000D02*
X123060000Y-117000000D01*
X123060000Y-118000000D02*
X123060000Y-119060000D01*
X123060000Y-119060000D02*
X122000000Y-119060000D01*
X98940000Y-101000000D02*
X98940000Y-119060000D01*
X98940000Y-119060000D02*
X101060000Y-119060000D01*
X101060000Y-119060000D02*
X101060000Y-101000000D01*
X101060000Y-101000000D02*
X98940000Y-101000000D01*
X98940000Y-100000000D02*
X98940000Y-98940000D01*
X98940000Y-98940000D02*
X100000000Y-98940000D01*
X104750000Y-130400000D02*
X118810000Y-130400000D01*
X118810000Y-130400000D02*
X118810000Y-128280000D01*
X118810000Y-128280000D02*
X104750000Y-128280000D01*
X104750000Y-128280000D02*
X104750000Y-130400000D01*
X103750000Y-130400000D02*
X102690000Y-130400000D01*
X102690000Y-130400000D02*
X102690000Y-129340000D01*
X105670000Y-136230000D02*
X118430000Y-136230000D01*
X118430000Y-136230000D02*
X118430000Y-133570000D01*
X118430000Y-133570000D02*
X105670000Y-133570000D01*
X105670000Y-133570000D02*
X105670000Y-136230000D01*
X104400000Y-136230000D02*
X103070000Y-136230000D01*
X103070000Y-136230000D02*
X103070000Y-134900000D01*
D13*
X125509000Y-136550000D02*
X125509000Y-140550000D01*
X120191000Y-136550000D02*
X120191000Y-140550000D01*
X125763000Y-135915000D02*
X125890000Y-136042000D01*
X125890000Y-136042000D02*
X125763000Y-136169000D01*
X125763000Y-136169000D02*
X125636000Y-136042000D01*
X125636000Y-136042000D02*
X125763000Y-135915000D01*
X112800000Y-137250000D02*
X111800000Y-137250000D01*
D15*
X113300000Y-137250000D02*
X113800000Y-137250000D01*
X113800000Y-137250000D02*
X113800000Y-140250000D01*
X113800000Y-140250000D02*
X113300000Y-140250000D01*
X113300000Y-140250000D02*
X113300000Y-137250000D01*
D13*
X116850000Y-145800000D02*
X116850000Y-146800000D01*
X105150000Y-145800000D02*
X105150000Y-146800000D01*
X105150000Y-142400000D02*
X105150000Y-141000000D01*
X105150000Y-141000000D02*
X116850000Y-141000000D01*
X116850000Y-141000000D02*
X116850000Y-142400000D01*
D14*
X94270000Y-131270000D02*
X94300000Y-131270000D01*
X100730000Y-131270000D02*
X100700000Y-131270000D01*
X100730000Y-137730000D02*
X100700000Y-137730000D01*
X94300000Y-137730000D02*
X94270000Y-137730000D01*
X96200000Y-131270000D02*
X98800000Y-131270000D01*
X94270000Y-137730000D02*
X94270000Y-131270000D01*
X96200000Y-137730000D02*
X98800000Y-137730000D01*
X100730000Y-137730000D02*
X100730000Y-131270000D01*
X112660000Y-123700000D02*
X112660000Y-121900000D01*
X109440000Y-121900000D02*
X109440000Y-124350000D01*
D13*
X103535714Y-107233333D02*
X103573810Y-107271428D01*
X103611905Y-107385714D01*
X103611905Y-107461904D01*
X103573810Y-107576190D01*
X103497619Y-107652381D01*
X103421429Y-107690476D01*
X103269048Y-107728571D01*
X103154762Y-107728571D01*
X103002381Y-107690476D01*
X102926190Y-107652381D01*
X102850000Y-107576190D01*
X102811905Y-107461904D01*
X102811905Y-107385714D01*
X102850000Y-107271428D01*
X102888095Y-107233333D01*
X103611905Y-106471428D02*
X103611905Y-106928571D01*
X103611905Y-106700000D02*
X102811905Y-106700000D01*
X102926190Y-106776190D01*
X103002381Y-106852381D01*
X103040476Y-106928571D01*
X106061905Y-108933333D02*
X105680952Y-109200000D01*
X106061905Y-109390476D02*
X105261905Y-109390476D01*
X105261905Y-109085714D01*
X105300000Y-109009523D01*
X105338095Y-108971428D01*
X105414286Y-108933333D01*
X105528571Y-108933333D01*
X105604762Y-108971428D01*
X105642857Y-109009523D01*
X105680952Y-109085714D01*
X105680952Y-109390476D01*
X105528571Y-108247619D02*
X106061905Y-108247619D01*
X105223810Y-108438095D02*
X105795238Y-108628571D01*
X105795238Y-108133333D01*
X106616667Y-119761905D02*
X106350000Y-119380952D01*
X106159524Y-119761905D02*
X106159524Y-118961905D01*
X106464286Y-118961905D01*
X106540477Y-119000000D01*
X106578572Y-119038095D01*
X106616667Y-119114286D01*
X106616667Y-119228571D01*
X106578572Y-119304762D01*
X106540477Y-119342857D01*
X106464286Y-119380952D01*
X106159524Y-119380952D01*
X107378572Y-119761905D02*
X106921429Y-119761905D01*
X107150000Y-119761905D02*
X107150000Y-118961905D01*
X107073810Y-119076190D01*
X106997619Y-119152381D01*
X106921429Y-119190476D01*
X111066667Y-118085714D02*
X111028572Y-118123810D01*
X110914286Y-118161905D01*
X110838096Y-118161905D01*
X110723810Y-118123810D01*
X110647619Y-118047619D01*
X110609524Y-117971429D01*
X110571429Y-117819048D01*
X110571429Y-117704762D01*
X110609524Y-117552381D01*
X110647619Y-117476190D01*
X110723810Y-117400000D01*
X110838096Y-117361905D01*
X110914286Y-117361905D01*
X111028572Y-117400000D01*
X111066667Y-117438095D01*
X111752381Y-117628571D02*
X111752381Y-118161905D01*
X111561905Y-117323810D02*
X111371429Y-117895238D01*
X111866667Y-117895238D01*
X107366667Y-126685714D02*
X107328572Y-126723810D01*
X107214286Y-126761905D01*
X107138096Y-126761905D01*
X107023810Y-126723810D01*
X106947619Y-126647619D01*
X106909524Y-126571429D01*
X106871429Y-126419048D01*
X106871429Y-126304762D01*
X106909524Y-126152381D01*
X106947619Y-126076190D01*
X107023810Y-126000000D01*
X107138096Y-125961905D01*
X107214286Y-125961905D01*
X107328572Y-126000000D01*
X107366667Y-126038095D01*
X107671429Y-126038095D02*
X107709524Y-126000000D01*
X107785715Y-125961905D01*
X107976191Y-125961905D01*
X108052381Y-126000000D01*
X108090477Y-126038095D01*
X108128572Y-126114286D01*
X108128572Y-126190476D01*
X108090477Y-126304762D01*
X107633334Y-126761905D01*
X108128572Y-126761905D01*
X97028571Y-121361905D02*
X97028571Y-120561905D01*
X97219047Y-120561905D01*
X97333333Y-120600000D01*
X97409524Y-120676190D01*
X97447619Y-120752381D01*
X97485714Y-120904762D01*
X97485714Y-121019048D01*
X97447619Y-121171429D01*
X97409524Y-121247619D01*
X97333333Y-121323810D01*
X97219047Y-121361905D01*
X97028571Y-121361905D01*
X97790476Y-121323810D02*
X97904762Y-121361905D01*
X98095238Y-121361905D01*
X98171428Y-121323810D01*
X98209524Y-121285714D01*
X98247619Y-121209524D01*
X98247619Y-121133333D01*
X98209524Y-121057143D01*
X98171428Y-121019048D01*
X98095238Y-120980952D01*
X97942857Y-120942857D01*
X97866666Y-120904762D01*
X97828571Y-120866667D01*
X97790476Y-120790476D01*
X97790476Y-120714286D01*
X97828571Y-120638095D01*
X97866666Y-120600000D01*
X97942857Y-120561905D01*
X98133333Y-120561905D01*
X98247619Y-120600000D01*
X99009524Y-121361905D02*
X98552381Y-121361905D01*
X98780952Y-121361905D02*
X98780952Y-120561905D01*
X98704762Y-120676190D01*
X98628571Y-120752381D01*
X98552381Y-120790476D01*
X117747619Y-146022857D02*
X118014286Y-146022857D01*
X118128572Y-146441905D02*
X117747619Y-146441905D01*
X117747619Y-145641905D01*
X118128572Y-145641905D01*
X118890477Y-146441905D02*
X118433334Y-146441905D01*
X118661905Y-146441905D02*
X118661905Y-145641905D01*
X118585715Y-145756190D01*
X118509524Y-145832381D01*
X118433334Y-145870476D01*
X123041667Y-144710714D02*
X123003572Y-144748810D01*
X122889286Y-144786905D01*
X122813096Y-144786905D01*
X122698810Y-144748810D01*
X122622619Y-144672619D01*
X122584524Y-144596429D01*
X122546429Y-144444048D01*
X122546429Y-144329762D01*
X122584524Y-144177381D01*
X122622619Y-144101190D01*
X122698810Y-144025000D01*
X122813096Y-143986905D01*
X122889286Y-143986905D01*
X123003572Y-144025000D01*
X123041667Y-144063095D01*
X123308334Y-143986905D02*
X123803572Y-143986905D01*
X123536905Y-144291667D01*
X123651191Y-144291667D01*
X123727381Y-144329762D01*
X123765477Y-144367857D01*
X123803572Y-144444048D01*
X123803572Y-144634524D01*
X123765477Y-144710714D01*
X123727381Y-144748810D01*
X123651191Y-144786905D01*
X123422619Y-144786905D01*
X123346429Y-144748810D01*
X123308334Y-144710714D01*
X118016667Y-141861905D02*
X117750000Y-141480952D01*
X117559524Y-141861905D02*
X117559524Y-141061905D01*
X117864286Y-141061905D01*
X117940477Y-141100000D01*
X117978572Y-141138095D01*
X118016667Y-141214286D01*
X118016667Y-141328571D01*
X117978572Y-141404762D01*
X117940477Y-141442857D01*
X117864286Y-141480952D01*
X117559524Y-141480952D01*
X118283334Y-141061905D02*
X118778572Y-141061905D01*
X118511905Y-141366667D01*
X118626191Y-141366667D01*
X118702381Y-141404762D01*
X118740477Y-141442857D01*
X118778572Y-141519048D01*
X118778572Y-141709524D01*
X118740477Y-141785714D01*
X118702381Y-141823810D01*
X118626191Y-141861905D01*
X118397619Y-141861905D01*
X118321429Y-141823810D01*
X118283334Y-141785714D01*
X119716667Y-134511905D02*
X119450000Y-134130952D01*
X119259524Y-134511905D02*
X119259524Y-133711905D01*
X119564286Y-133711905D01*
X119640477Y-133750000D01*
X119678572Y-133788095D01*
X119716667Y-133864286D01*
X119716667Y-133978571D01*
X119678572Y-134054762D01*
X119640477Y-134092857D01*
X119564286Y-134130952D01*
X119259524Y-134130952D01*
X120021429Y-133788095D02*
X120059524Y-133750000D01*
X120135715Y-133711905D01*
X120326191Y-133711905D01*
X120402381Y-133750000D01*
X120440477Y-133788095D01*
X120478572Y-133864286D01*
X120478572Y-133940476D01*
X120440477Y-134054762D01*
X119983334Y-134511905D01*
X120478572Y-134511905D01*
X118666667Y-117452381D02*
X118666667Y-118166667D01*
X118619047Y-118309524D01*
X118523809Y-118404762D01*
X118380952Y-118452381D01*
X118285714Y-118452381D01*
X119571429Y-117785714D02*
X119571429Y-118452381D01*
X119333333Y-117404762D02*
X119095238Y-118119048D01*
X119714286Y-118119048D01*
X102276667Y-99412381D02*
X102276667Y-100126667D01*
X102229047Y-100269524D01*
X102133809Y-100364762D01*
X101990952Y-100412381D01*
X101895714Y-100412381D01*
X102657619Y-99412381D02*
X103276667Y-99412381D01*
X102943333Y-99793333D01*
X103086191Y-99793333D01*
X103181429Y-99840952D01*
X103229048Y-99888571D01*
X103276667Y-99983810D01*
X103276667Y-100221905D01*
X103229048Y-100317143D01*
X103181429Y-100364762D01*
X103086191Y-100412381D01*
X102800476Y-100412381D01*
X102705238Y-100364762D01*
X102657619Y-100317143D01*
X103376667Y-126402381D02*
X103376667Y-127116667D01*
X103329047Y-127259524D01*
X103233809Y-127354762D01*
X103090952Y-127402381D01*
X102995714Y-127402381D01*
X104329048Y-126402381D02*
X103852857Y-126402381D01*
X103805238Y-126878571D01*
X103852857Y-126830952D01*
X103948095Y-126783333D01*
X104186191Y-126783333D01*
X104281429Y-126830952D01*
X104329048Y-126878571D01*
X104376667Y-126973810D01*
X104376667Y-127211905D01*
X104329048Y-127307143D01*
X104281429Y-127354762D01*
X104186191Y-127402381D01*
X103948095Y-127402381D01*
X103852857Y-127354762D01*
X103805238Y-127307143D01*
X119933334Y-128852381D02*
X119933334Y-129566667D01*
X119885714Y-129709524D01*
X119790476Y-129804762D01*
X119647619Y-129852381D01*
X119552381Y-129852381D01*
X120266667Y-128852381D02*
X120838096Y-128852381D01*
X120552381Y-129852381D02*
X120552381Y-128852381D01*
X121123810Y-129566667D02*
X121600001Y-129566667D01*
X121028572Y-129852381D02*
X121361905Y-128852381D01*
X121695239Y-129852381D01*
X122552382Y-128900000D02*
X122457144Y-128852381D01*
X122314287Y-128852381D01*
X122171429Y-128900000D01*
X122076191Y-128995238D01*
X122028572Y-129090476D01*
X121980953Y-129280952D01*
X121980953Y-129423810D01*
X122028572Y-129614286D01*
X122076191Y-129709524D01*
X122171429Y-129804762D01*
X122314287Y-129852381D01*
X122409525Y-129852381D01*
X122552382Y-129804762D01*
X122600001Y-129757143D01*
X122600001Y-129423810D01*
X122409525Y-129423810D01*
X104066667Y-131752381D02*
X104066667Y-132466667D01*
X104019047Y-132609524D01*
X103923809Y-132704762D01*
X103780952Y-132752381D01*
X103685714Y-132752381D01*
X105066667Y-132752381D02*
X104495238Y-132752381D01*
X104780952Y-132752381D02*
X104780952Y-131752381D01*
X104685714Y-131895238D01*
X104590476Y-131990476D01*
X104495238Y-132038095D01*
X124890476Y-133561905D02*
X124890476Y-134209524D01*
X124928571Y-134285714D01*
X124966667Y-134323810D01*
X125042857Y-134361905D01*
X125195238Y-134361905D01*
X125271429Y-134323810D01*
X125309524Y-134285714D01*
X125347619Y-134209524D01*
X125347619Y-133561905D01*
X125690476Y-133638095D02*
X125728571Y-133600000D01*
X125804762Y-133561905D01*
X125995238Y-133561905D01*
X126071428Y-133600000D01*
X126109524Y-133638095D01*
X126147619Y-133714286D01*
X126147619Y-133790476D01*
X126109524Y-133904762D01*
X125652381Y-134361905D01*
X126147619Y-134361905D01*
D10*
X120914286Y-139909522D02*
X120914286Y-140076188D01*
X121176190Y-140076188D02*
X120676190Y-140076188D01*
X120676190Y-139838093D01*
X120676190Y-139719046D02*
X120676190Y-139433332D01*
X121176190Y-139576189D02*
X120676190Y-139576189D01*
X120723810Y-139290475D02*
X120700000Y-139266665D01*
X120676190Y-139219046D01*
X120676190Y-139099999D01*
X120700000Y-139052380D01*
X120723810Y-139028570D01*
X120771429Y-139004761D01*
X120819048Y-139004761D01*
X120890476Y-139028570D01*
X121176190Y-139314284D01*
X121176190Y-139004761D01*
X120676190Y-138838094D02*
X120676190Y-138528571D01*
X120866667Y-138695237D01*
X120866667Y-138623809D01*
X120890476Y-138576190D01*
X120914286Y-138552380D01*
X120961905Y-138528571D01*
X121080952Y-138528571D01*
X121128571Y-138552380D01*
X121152381Y-138576190D01*
X121176190Y-138623809D01*
X121176190Y-138766666D01*
X121152381Y-138814285D01*
X121128571Y-138838094D01*
X120676190Y-138219047D02*
X120676190Y-138171428D01*
X120700000Y-138123809D01*
X120723810Y-138100000D01*
X120771429Y-138076190D01*
X120866667Y-138052381D01*
X120985714Y-138052381D01*
X121080952Y-138076190D01*
X121128571Y-138100000D01*
X121152381Y-138123809D01*
X121176190Y-138171428D01*
X121176190Y-138219047D01*
X121152381Y-138266666D01*
X121128571Y-138290476D01*
X121080952Y-138314285D01*
X120985714Y-138338095D01*
X120866667Y-138338095D01*
X120771429Y-138314285D01*
X120723810Y-138290476D01*
X120700000Y-138266666D01*
X120676190Y-138219047D01*
X120676190Y-137885714D02*
X121176190Y-137552381D01*
X120676190Y-137552381D02*
X121176190Y-137885714D01*
X121152381Y-137385715D02*
X121176190Y-137314286D01*
X121176190Y-137195239D01*
X121152381Y-137147620D01*
X121128571Y-137123810D01*
X121080952Y-137100001D01*
X121033333Y-137100001D01*
X120985714Y-137123810D01*
X120961905Y-137147620D01*
X120938095Y-137195239D01*
X120914286Y-137290477D01*
X120890476Y-137338096D01*
X120866667Y-137361905D01*
X120819048Y-137385715D01*
X120771429Y-137385715D01*
X120723810Y-137361905D01*
X120700000Y-137338096D01*
X120676190Y-137290477D01*
X120676190Y-137171429D01*
X120700000Y-137100001D01*
D13*
X109228571Y-137761905D02*
X109228571Y-136961905D01*
X109419047Y-136961905D01*
X109533333Y-137000000D01*
X109609524Y-137076190D01*
X109647619Y-137152381D01*
X109685714Y-137304762D01*
X109685714Y-137419048D01*
X109647619Y-137571429D01*
X109609524Y-137647619D01*
X109533333Y-137723810D01*
X109419047Y-137761905D01*
X109228571Y-137761905D01*
X109952381Y-136961905D02*
X110485714Y-136961905D01*
X109952381Y-137761905D01*
X110485714Y-137761905D01*
X111209524Y-137761905D02*
X110752381Y-137761905D01*
X110980952Y-137761905D02*
X110980952Y-136961905D01*
X110904762Y-137076190D01*
X110828571Y-137152381D01*
X110752381Y-137190476D01*
X103441667Y-141002381D02*
X103441667Y-141716667D01*
X103394047Y-141859524D01*
X103298809Y-141954762D01*
X103155952Y-142002381D01*
X103060714Y-142002381D01*
X103870238Y-141097619D02*
X103917857Y-141050000D01*
X104013095Y-141002381D01*
X104251191Y-141002381D01*
X104346429Y-141050000D01*
X104394048Y-141097619D01*
X104441667Y-141192857D01*
X104441667Y-141288095D01*
X104394048Y-141430952D01*
X103822619Y-142002381D01*
X104441667Y-142002381D01*
X96166667Y-134904762D02*
X96309524Y-134952381D01*
X96547620Y-134952381D01*
X96642858Y-134904762D01*
X96690477Y-134857143D01*
X96738096Y-134761905D01*
X96738096Y-134666667D01*
X96690477Y-134571429D01*
X96642858Y-134523810D01*
X96547620Y-134476190D01*
X96357143Y-134428571D01*
X96261905Y-134380952D01*
X96214286Y-134333333D01*
X96166667Y-134238095D01*
X96166667Y-134142857D01*
X96214286Y-134047619D01*
X96261905Y-134000000D01*
X96357143Y-133952381D01*
X96595239Y-133952381D01*
X96738096Y-134000000D01*
X97071429Y-133952381D02*
X97309524Y-134952381D01*
X97500001Y-134238095D01*
X97690477Y-134952381D01*
X97928572Y-133952381D01*
X98833334Y-134952381D02*
X98261905Y-134952381D01*
X98547619Y-134952381D02*
X98547619Y-133952381D01*
X98452381Y-134095238D01*
X98357143Y-134190476D01*
X98261905Y-134238095D01*
X107438095Y-123252381D02*
X107438095Y-124061905D01*
X107485714Y-124157143D01*
X107533333Y-124204762D01*
X107628571Y-124252381D01*
X107819048Y-124252381D01*
X107914286Y-124204762D01*
X107961905Y-124157143D01*
X108009524Y-124061905D01*
X108009524Y-123252381D01*
X109009524Y-124252381D02*
X108438095Y-124252381D01*
X108723809Y-124252381D02*
X108723809Y-123252381D01*
X108628571Y-123395238D01*
X108533333Y-123490476D01*
X108438095Y-123538095D01*
X64166667Y-106952381D02*
X63833333Y-106476190D01*
X63595238Y-106952381D02*
X63595238Y-105952381D01*
X63976191Y-105952381D01*
X64071429Y-106000000D01*
X64119048Y-106047619D01*
X64166667Y-106142857D01*
X64166667Y-106285714D01*
X64119048Y-106380952D01*
X64071429Y-106428571D01*
X63976191Y-106476190D01*
X63595238Y-106476190D01*
X64595238Y-106428571D02*
X64928572Y-106428571D01*
X65071429Y-106952381D02*
X64595238Y-106952381D01*
X64595238Y-105952381D01*
X65071429Y-105952381D01*
X65833334Y-106428571D02*
X65500000Y-106428571D01*
X65500000Y-106952381D02*
X65500000Y-105952381D01*
X65976191Y-105952381D01*
X66500000Y-105952381D02*
X66500000Y-106190476D01*
X66261905Y-106095238D02*
X66500000Y-106190476D01*
X66738096Y-106095238D01*
X66357143Y-106380952D02*
X66500000Y-106190476D01*
X66642858Y-106380952D01*
X67261905Y-105952381D02*
X67261905Y-106190476D01*
X67023810Y-106095238D02*
X67261905Y-106190476D01*
X67500001Y-106095238D01*
X67119048Y-106380952D02*
X67261905Y-106190476D01*
X67404763Y-106380952D01*
X64666667Y-101952381D02*
X64333333Y-101476190D01*
X64095238Y-101952381D02*
X64095238Y-100952381D01*
X64476191Y-100952381D01*
X64571429Y-101000000D01*
X64619048Y-101047619D01*
X64666667Y-101142857D01*
X64666667Y-101285714D01*
X64619048Y-101380952D01*
X64571429Y-101428571D01*
X64476191Y-101476190D01*
X64095238Y-101476190D01*
X65095238Y-101428571D02*
X65428572Y-101428571D01*
X65571429Y-101952381D02*
X65095238Y-101952381D01*
X65095238Y-100952381D01*
X65571429Y-100952381D01*
X66333334Y-101428571D02*
X66000000Y-101428571D01*
X66000000Y-101952381D02*
X66000000Y-100952381D01*
X66476191Y-100952381D01*
X67000000Y-100952381D02*
X67000000Y-101190476D01*
X66761905Y-101095238D02*
X67000000Y-101190476D01*
X67238096Y-101095238D01*
X66857143Y-101380952D02*
X67000000Y-101190476D01*
X67142858Y-101380952D01*
X67761905Y-100952381D02*
X67761905Y-101190476D01*
X67523810Y-101095238D02*
X67761905Y-101190476D01*
X68000001Y-101095238D01*
X67619048Y-101380952D02*
X67761905Y-101190476D01*
X67904763Y-101380952D01*
X63666667Y-117452381D02*
X63333333Y-116976190D01*
X63095238Y-117452381D02*
X63095238Y-116452381D01*
X63476191Y-116452381D01*
X63571429Y-116500000D01*
X63619048Y-116547619D01*
X63666667Y-116642857D01*
X63666667Y-116785714D01*
X63619048Y-116880952D01*
X63571429Y-116928571D01*
X63476191Y-116976190D01*
X63095238Y-116976190D01*
X64095238Y-116928571D02*
X64428572Y-116928571D01*
X64571429Y-117452381D02*
X64095238Y-117452381D01*
X64095238Y-116452381D01*
X64571429Y-116452381D01*
X65333334Y-116928571D02*
X65000000Y-116928571D01*
X65000000Y-117452381D02*
X65000000Y-116452381D01*
X65476191Y-116452381D01*
X66000000Y-116452381D02*
X66000000Y-116690476D01*
X65761905Y-116595238D02*
X66000000Y-116690476D01*
X66238096Y-116595238D01*
X65857143Y-116880952D02*
X66000000Y-116690476D01*
X66142858Y-116880952D01*
X66761905Y-116452381D02*
X66761905Y-116690476D01*
X66523810Y-116595238D02*
X66761905Y-116690476D01*
X67000001Y-116595238D01*
X66619048Y-116880952D02*
X66761905Y-116690476D01*
X66904763Y-116880952D01*
X64166667Y-90452381D02*
X63833333Y-89976190D01*
X63595238Y-90452381D02*
X63595238Y-89452381D01*
X63976191Y-89452381D01*
X64071429Y-89500000D01*
X64119048Y-89547619D01*
X64166667Y-89642857D01*
X64166667Y-89785714D01*
X64119048Y-89880952D01*
X64071429Y-89928571D01*
X63976191Y-89976190D01*
X63595238Y-89976190D01*
X64595238Y-89928571D02*
X64928572Y-89928571D01*
X65071429Y-90452381D02*
X64595238Y-90452381D01*
X64595238Y-89452381D01*
X65071429Y-89452381D01*
X65833334Y-89928571D02*
X65500000Y-89928571D01*
X65500000Y-90452381D02*
X65500000Y-89452381D01*
X65976191Y-89452381D01*
X66500000Y-89452381D02*
X66500000Y-89690476D01*
X66261905Y-89595238D02*
X66500000Y-89690476D01*
X66738096Y-89595238D01*
X66357143Y-89880952D02*
X66500000Y-89690476D01*
X66642858Y-89880952D01*
X67261905Y-89452381D02*
X67261905Y-89690476D01*
X67023810Y-89595238D02*
X67261905Y-89690476D01*
X67500001Y-89595238D01*
X67119048Y-89880952D02*
X67261905Y-89690476D01*
X67404763Y-89880952D01*
M02*
