G04 #@! TF.FileFunction,Soldermask,Top*
%FSLAX46Y46*%
G04 Gerber Fmt 4.6, Leading zero omitted, Abs format (unit mm)*
G04 Created by KiCad (PCBNEW 4.0.7) date 01/02/18 09:07:11*
%MOMM*%
%LPD*%
G01*
G04 APERTURE LIST*
%ADD10C,0.100000*%
%ADD11R,1.850000X1.550000*%
%ADD12R,1.400000X1.250000*%
%ADD13R,1.250000X1.400000*%
%ADD14R,1.550000X1.850000*%
%ADD15R,1.200100X1.299160*%
%ADD16R,1.400000X1.350000*%
%ADD17R,1.750000X1.750000*%
%ADD18O,1.750000X1.750000*%
%ADD19R,2.100000X2.100000*%
%ADD20O,2.100000X2.100000*%
%ADD21O,0.800000X1.950000*%
%ADD22R,1.500000X1.000000*%
%ADD23C,2.000000*%
%ADD24C,1.600000*%
%ADD25O,2.000000X3.600000*%
%ADD26R,1.700000X1.950000*%
%ADD27R,1.050000X1.460000*%
%ADD28C,3.100000*%
G04 APERTURE END LIST*
D10*
D11*
X103250000Y-108000000D03*
X103250000Y-106200000D03*
D12*
X105700000Y-109550000D03*
X105700000Y-108050000D03*
D13*
X107500000Y-119400000D03*
X106000000Y-119400000D03*
D14*
X110100000Y-119400000D03*
X111900000Y-119400000D03*
X111000000Y-126400000D03*
X109200000Y-126400000D03*
D15*
X96000000Y-119100840D03*
X96000000Y-120899160D03*
D16*
X119770000Y-145080000D03*
X119770000Y-143480000D03*
X121550000Y-143500000D03*
X121550000Y-145100000D03*
D13*
X118200000Y-140000000D03*
X116700000Y-140000000D03*
X116700000Y-137700000D03*
X118200000Y-137700000D03*
D17*
X122000000Y-118000000D03*
D18*
X122000000Y-116000000D03*
X122000000Y-114000000D03*
X122000000Y-112000000D03*
X122000000Y-110000000D03*
X122000000Y-108000000D03*
X122000000Y-106000000D03*
X122000000Y-104000000D03*
X122000000Y-102000000D03*
X122000000Y-100000000D03*
D17*
X100000000Y-100000000D03*
D18*
X100000000Y-102000000D03*
X100000000Y-104000000D03*
X100000000Y-106000000D03*
X100000000Y-108000000D03*
X100000000Y-110000000D03*
X100000000Y-112000000D03*
X100000000Y-114000000D03*
X100000000Y-116000000D03*
X100000000Y-118000000D03*
D17*
X103750000Y-129340000D03*
D18*
X105750000Y-129340000D03*
X107750000Y-129340000D03*
X109750000Y-129340000D03*
X111750000Y-129340000D03*
X113750000Y-129340000D03*
X115750000Y-129340000D03*
X117750000Y-129340000D03*
D19*
X104400000Y-134900000D03*
D20*
X106940000Y-134900000D03*
X109480000Y-134900000D03*
X112020000Y-134900000D03*
X114560000Y-134900000D03*
X117100000Y-134900000D03*
D21*
X125055000Y-135850000D03*
X124425000Y-135850000D03*
X123795000Y-135850000D03*
X123165000Y-135850000D03*
X122535000Y-135850000D03*
X121905000Y-135850000D03*
X121275000Y-135850000D03*
X120645000Y-135850000D03*
X120645000Y-141250000D03*
X121275000Y-141250000D03*
X121905000Y-141250000D03*
X122535000Y-141250000D03*
X123165000Y-141250000D03*
X123795000Y-141250000D03*
X124425000Y-141250000D03*
X125055000Y-141250000D03*
D22*
X112450000Y-137800000D03*
X112450000Y-139700000D03*
X112450000Y-138750000D03*
X114650000Y-139700000D03*
X114650000Y-137800000D03*
X114650000Y-138750000D03*
D23*
X107500000Y-142000000D03*
X110000000Y-142000000D03*
X112000000Y-142000000D03*
X114500000Y-142000000D03*
D24*
X108700000Y-144100000D03*
X113300000Y-144100000D03*
D25*
X105150000Y-144100000D03*
X116850000Y-144100000D03*
D26*
X99750000Y-138480000D03*
X95250000Y-138480000D03*
X95250000Y-130520000D03*
X99750000Y-130520000D03*
D27*
X110100000Y-123900000D03*
X111050000Y-123900000D03*
X112000000Y-123900000D03*
X112000000Y-121700000D03*
X110100000Y-121700000D03*
D28*
X95500000Y-99500000D03*
X126500000Y-99500000D03*
X95500000Y-144500000D03*
X126500000Y-123000000D03*
M02*
